<?xml version="1.0" standalone="no"?><!DOCTYPE svg PUBLIC "-//W3C//DTD SVG 1.1//EN" "http://www.w3.org/Graphics/SVG/1.1/DTD/svg11.dtd"><svg width="100%" height="100%" viewBox="0 0 330 104" version="1.1" xmlns="http://www.w3.org/2000/svg" xmlns:xlink="http://www.w3.org/1999/xlink" xml:space="preserve" style="fill-rule:evenodd;clip-rule:evenodd;stroke-linejoin:round;stroke-miterlimit:1.41421;"><g><g id="Layer 1"><path d="M96.359,44.789l4.922,0c1.601,0 2.796,-0.339 3.584,-1.016c0.788,-0.676 1.182,-1.679 1.182,-3.007c0,-1.302 -0.394,-2.337 -1.182,-3.106c-0.788,-0.768 -1.95,-1.152 -3.486,-1.152l-5.02,0l0,8.281ZM96.359,49.184l0,11.367l-5.703,0l0,-28.438l10.723,0c3.242,0 5.778,0.739 7.607,2.217c1.829,1.478 2.744,3.538 2.744,6.182c0,1.471 -0.384,2.734 -1.152,3.789c-0.769,1.054 -1.895,1.907 -3.379,2.558c1.68,0.495 2.888,1.322 3.623,2.481c0.735,1.159 1.103,2.591 1.103,4.297l0,2.09c0,0.793 0.108,1.624 0.323,2.49c0.215,0.866 0.583,1.507 1.103,1.924l0,0.41l-5.879,0c-0.52,-0.417 -0.859,-1.114 -1.015,-2.09c-0.157,-0.977 -0.235,-1.901 -0.235,-2.774l0,-2.011c0,-1.419 -0.387,-2.523 -1.162,-3.311c-0.774,-0.788 -1.865,-1.181 -3.271,-1.181l-5.43,0Z" style="fill:#4d4d4d;fill-rule:nonzero;"/><path d="M125.481,43.422c-1.056,0 -1.889,0.403 -2.501,1.211c-0.611,0.808 -0.989,1.868 -1.132,3.184l0.059,0.097l6.992,0l0,-0.508c0,-1.211 -0.284,-2.177 -0.851,-2.9c-0.566,-0.723 -1.421,-1.084 -2.567,-1.084M125.989,60.961c-3.047,0 -5.483,-0.976 -7.305,-2.93c-1.823,-1.953 -2.734,-4.433 -2.734,-7.441l-0.001,-0.781c0.001,-3.138 0.863,-5.723 2.589,-7.754c1.725,-2.031 4.04,-3.04 6.943,-3.028c2.852,0 5.065,0.86 6.641,2.579c1.575,1.718 2.363,4.043 2.363,6.972l0,3.106l-12.617,0l-0.039,0.116c0.104,1.388 0.569,2.529 1.396,3.424c0.827,0.895 1.95,1.343 3.369,1.343c1.263,0 2.312,-0.127 3.145,-0.381c0.833,-0.254 1.745,-0.655 2.734,-1.201l1.543,3.524c-0.859,0.706 -1.985,1.291 -3.379,1.756c-1.393,0.464 -2.942,0.696 -4.648,0.696" style="fill:#4d4d4d;fill-rule:nonzero;"/><path d="M144.992,56.742c1.003,0 1.895,-0.247 2.676,-0.742c0.781,-0.495 1.308,-1.068 1.582,-1.719l0,-2.988l-3.184,0c-1.211,0 -2.129,0.303 -2.754,0.908c-0.625,0.605 -0.937,1.338 -0.937,2.197c0,0.703 0.234,1.27 0.703,1.699c0.469,0.43 1.106,0.645 1.914,0.645M150.207,60.551c-0.208,-0.482 -0.388,-0.99 -0.537,-1.524c-0.15,-0.534 -0.257,-1.081 -0.323,-1.64c-0.585,1.028 -1.357,1.881 -2.314,2.558c-0.957,0.677 -2.1,1.016 -3.428,1.016c-2.214,0 -3.919,-0.57 -5.117,-1.709c-1.198,-1.14 -1.797,-2.693 -1.797,-4.658c0,-2.071 0.798,-3.675 2.393,-4.815c1.595,-1.14 3.923,-1.709 6.982,-1.709l3.184,0l0,-1.68c0,-1.015 -0.267,-1.803 -0.801,-2.363c-0.534,-0.559 -1.321,-0.84 -2.363,-0.84c-0.925,0 -1.638,0.225 -2.139,0.674c-0.501,0.449 -0.752,1.071 -0.752,1.865l-5.508,-0.019l-0.019,-0.117c-0.091,-1.785 0.683,-3.324 2.324,-4.619c1.641,-1.296 3.796,-1.944 6.465,-1.944c2.526,0 4.577,0.642 6.152,1.924c1.575,1.282 2.363,3.108 2.363,5.478l0,8.731c0,0.989 0.076,1.921 0.225,2.793c0.149,0.872 0.388,1.738 0.713,2.598l-5.703,0Z" style="fill:#4d4d4d;fill-rule:nonzero;"/><path d="M168.156,56.567c1.016,0 1.829,-0.294 2.441,-0.884c0.613,-0.589 0.918,-1.375 0.918,-2.358l5.176,0l0.059,0.117c0.052,2.136 -0.752,3.923 -2.412,5.361c-1.661,1.439 -3.721,2.159 -6.182,2.159c-3.151,0 -5.579,-0.997 -7.285,-2.989c-1.706,-1.992 -2.559,-4.551 -2.559,-7.676l0,-0.585c0,-3.113 0.85,-5.671 2.549,-7.676c1.699,-2.005 4.124,-3.008 7.275,-3.008c2.605,0 4.705,0.742 6.299,2.226c1.595,1.485 2.367,3.438 2.315,5.86l-0.039,0.117l-5.196,0c0,-1.094 -0.299,-2.002 -0.898,-2.725c-0.599,-0.722 -1.426,-1.084 -2.481,-1.084c-1.51,0 -2.575,0.585 -3.193,1.755c-0.618,1.17 -0.928,2.679 -0.928,4.525l0,0.585c0,1.885 0.31,3.403 0.928,4.554c0.618,1.151 1.69,1.726 3.213,1.726" style="fill:#4d4d4d;fill-rule:nonzero;"/><path d="M186.769,34.242l0,5.176l3.555,0l0,4.004l-3.555,0l0,10.761c0,0.821 0.169,1.407 0.508,1.758c0.339,0.352 0.794,0.528 1.367,0.528c0.3,0 0.557,-0.017 0.771,-0.049c0.215,-0.032 0.466,-0.088 0.752,-0.166l0.489,4.121c-0.574,0.195 -1.133,0.342 -1.68,0.439c-0.547,0.098 -1.14,0.147 -1.777,0.147c-1.966,0 -3.48,-0.54 -4.541,-1.621c-1.062,-1.081 -1.592,-2.793 -1.592,-5.137l0,-10.781l-3.086,0l0,-4.004l3.086,0l0,-5.176l5.703,0Z" style="fill:#4d4d4d;fill-rule:nonzero;"/><path d="M210.09,44.789l4.922,0c1.601,0 2.796,-0.339 3.584,-1.016c0.788,-0.676 1.182,-1.679 1.182,-3.007c0,-1.302 -0.394,-2.337 -1.182,-3.106c-0.788,-0.768 -1.95,-1.152 -3.486,-1.152l-5.02,0l0,8.281ZM210.09,49.184l0,11.367l-5.703,0l0,-28.438l10.723,0c3.242,0 5.778,0.739 7.607,2.217c1.829,1.478 2.744,3.538 2.744,6.182c0,1.471 -0.384,2.734 -1.152,3.789c-0.769,1.054 -1.895,1.907 -3.379,2.558c1.68,0.495 2.888,1.322 3.623,2.481c0.735,1.159 1.103,2.591 1.103,4.297l0,2.09c0,0.793 0.108,1.624 0.323,2.49c0.215,0.866 0.583,1.507 1.103,1.924l0,0.41l-5.879,0c-0.52,-0.417 -0.859,-1.114 -1.015,-2.09c-0.157,-0.977 -0.235,-1.901 -0.235,-2.774l0,-2.011c0,-1.419 -0.387,-2.523 -1.162,-3.311c-0.774,-0.788 -1.865,-1.181 -3.271,-1.181l-5.43,0Z" style="fill:#4d4d4d;fill-rule:nonzero;"/><path d="M239.211,43.422c-1.055,0 -1.888,0.403 -2.5,1.211c-0.612,0.808 -0.989,1.868 -1.133,3.184l0.059,0.097l6.992,0l0,-0.508c0,-1.211 -0.283,-2.177 -0.85,-2.9c-0.566,-0.723 -1.422,-1.084 -2.568,-1.084M239.719,60.961c-3.047,0 -5.482,-0.976 -7.305,-2.93c-1.823,-1.953 -2.734,-4.433 -2.734,-7.441l0,-0.781c0,-3.138 0.862,-5.723 2.588,-7.754c1.725,-2.031 4.04,-3.04 6.943,-3.028c2.852,0 5.065,0.86 6.641,2.579c1.575,1.718 2.363,4.043 2.363,6.972l0,3.106l-12.617,0l-0.039,0.116c0.104,1.388 0.569,2.529 1.396,3.424c0.827,0.895 1.95,1.343 3.369,1.343c1.263,0 2.312,-0.127 3.145,-0.381c0.833,-0.254 1.745,-0.655 2.734,-1.201l1.543,3.524c-0.859,0.706 -1.985,1.291 -3.379,1.756c-1.393,0.464 -2.942,0.696 -4.648,0.696" style="fill:#4d4d4d;fill-rule:nonzero;"/><path d="M258.723,56.742c1.003,0 1.895,-0.247 2.676,-0.742c0.781,-0.495 1.308,-1.068 1.582,-1.719l0,-2.988l-3.184,0c-1.211,0 -2.129,0.303 -2.754,0.908c-0.625,0.605 -0.937,1.338 -0.937,2.197c0,0.703 0.234,1.27 0.703,1.699c0.469,0.43 1.106,0.645 1.914,0.645M263.938,60.551c-0.208,-0.482 -0.388,-0.99 -0.537,-1.524c-0.15,-0.534 -0.257,-1.081 -0.323,-1.64c-0.585,1.028 -1.357,1.881 -2.314,2.558c-0.957,0.677 -2.1,1.016 -3.428,1.016c-2.214,0 -3.919,-0.57 -5.117,-1.709c-1.198,-1.14 -1.797,-2.693 -1.797,-4.658c0,-2.071 0.798,-3.675 2.393,-4.815c1.595,-1.14 3.923,-1.709 6.982,-1.709l3.184,0l0,-1.68c0,-1.015 -0.267,-1.803 -0.801,-2.363c-0.534,-0.559 -1.321,-0.84 -2.363,-0.84c-0.925,0 -1.638,0.225 -2.139,0.674c-0.501,0.449 -0.752,1.071 -0.752,1.865l-5.508,-0.019l-0.019,-0.117c-0.091,-1.785 0.683,-3.324 2.324,-4.619c1.641,-1.296 3.796,-1.944 6.465,-1.944c2.526,0 4.577,0.642 6.152,1.924c1.575,1.282 2.363,3.108 2.363,5.478l0,8.731c0,0.989 0.076,1.921 0.225,2.793c0.149,0.872 0.388,1.738 0.713,2.598l-5.703,0Z" style="fill:#4d4d4d;fill-rule:nonzero;"/><path d="M277.824,50.574c0,1.86 0.313,3.324 0.938,4.392c0.625,1.067 1.64,1.601 3.046,1.601c0.821,0 1.537,-0.167 2.149,-0.502c0.612,-0.333 1.113,-0.821 1.504,-1.463l0,-9.057c-0.391,-0.668 -0.889,-1.189 -1.494,-1.563c-0.606,-0.373 -1.312,-0.559 -2.12,-0.559c-1.393,0 -2.412,0.622 -3.056,1.866c-0.645,1.245 -0.967,2.869 -0.967,4.873l0,0.412ZM272.14,50.161c0,-3.334 0.72,-6.023 2.159,-8.066c1.438,-2.044 3.466,-3.067 6.084,-3.067c1.054,0 2.004,0.228 2.851,0.684c0.847,0.456 1.589,1.106 2.227,1.953l0,-11.582l5.722,0l0,30.469l-4.902,0l-0.469,-2.579c-0.664,0.977 -1.448,1.719 -2.353,2.227c-0.906,0.508 -1.944,0.762 -3.115,0.762c-2.591,0 -4.607,-0.95 -6.045,-2.852c-1.439,-1.901 -2.159,-4.414 -2.159,-7.539l0,-0.41Z" style="fill:#4d4d4d;fill-rule:nonzero;"/><path d="M304.445,43.422c-1.055,0 -1.888,0.403 -2.5,1.211c-0.612,0.808 -0.989,1.868 -1.133,3.184l0.059,0.097l6.992,0l0,-0.508c0,-1.211 -0.283,-2.177 -0.85,-2.9c-0.566,-0.723 -1.422,-1.084 -2.568,-1.084M304.953,60.961c-3.047,0 -5.482,-0.976 -7.305,-2.93c-1.823,-1.953 -2.734,-4.433 -2.734,-7.441l0,-0.781c0,-3.138 0.862,-5.723 2.588,-7.754c1.725,-2.031 4.04,-3.04 6.943,-3.028c2.852,0 5.065,0.86 6.641,2.579c1.575,1.718 2.363,4.043 2.363,6.972l0,3.106l-12.617,0l-0.039,0.116c0.104,1.388 0.569,2.529 1.396,3.424c0.827,0.895 1.95,1.343 3.369,1.343c1.263,0 2.312,-0.127 3.145,-0.381c0.833,-0.254 1.745,-0.655 2.734,-1.201l1.543,3.524c-0.859,0.706 -1.985,1.291 -3.379,1.756c-1.393,0.464 -2.942,0.696 -4.648,0.696" style="fill:#4d4d4d;fill-rule:nonzero;"/><path d="M327.883,44.32l-2.09,-0.059c-0.847,0 -1.543,0.176 -2.09,0.528c-0.547,0.351 -0.964,0.846 -1.25,1.484l0,14.277l-5.683,0l0,-21.132l5.293,0l0.254,3.125c0.495,-1.107 1.135,-1.97 1.923,-2.588c0.789,-0.618 1.697,-0.928 2.725,-0.928c0.286,0 0.55,0.022 0.791,0.068c0.241,0.046 0.485,0.101 0.732,0.166l-0.605,5.059Z" style="fill:#4d4d4d;fill-rule:nonzero;"/><path d="M91.027,79.647l3.73,0c1.172,0 2.053,-0.298 2.642,-0.894c0.589,-0.595 0.884,-1.346 0.884,-2.251c0,-0.912 -0.293,-1.668 -0.879,-2.27c-0.586,-0.603 -1.468,-0.903 -2.647,-0.903l-3.73,0l0,6.318ZM91.027,80.643l0,5.908l-1.162,0l0,-14.218l4.892,0c1.492,0 2.645,0.378 3.462,1.137c0.818,0.758 1.226,1.763 1.226,3.013c0,1.263 -0.408,2.271 -1.226,3.027c-0.817,0.755 -1.97,1.133 -3.462,1.133l-3.73,0Z" style="fill:#808080;fill-rule:nonzero;"/><path d="M102.307,81.429c0,1.223 0.31,2.25 0.928,3.082c0.618,0.833 1.481,1.249 2.588,1.249c1.087,0 1.941,-0.416 2.563,-1.249c0.622,-0.832 0.933,-1.859 0.933,-3.082l0,-0.322c0,-1.203 -0.313,-2.225 -0.938,-3.064c-0.625,-0.839 -1.484,-1.258 -2.578,-1.258c-1.094,0 -1.95,0.419 -2.568,1.258c-0.618,0.839 -0.928,1.861 -0.928,3.064l0,0.322ZM101.135,81.112c0,-1.557 0.427,-2.832 1.279,-3.829c0.853,-0.996 1.983,-1.494 3.389,-1.494c1.413,0 2.546,0.498 3.399,1.494c0.852,0.997 1.279,2.272 1.279,3.829l0,0.322c0,1.562 -0.425,2.84 -1.275,3.833c-0.849,0.992 -1.977,1.489 -3.383,1.489c-1.419,0 -2.556,-0.497 -3.409,-1.489c-0.852,-0.993 -1.279,-2.271 -1.279,-3.833l0,-0.322Z" style="fill:#808080;fill-rule:nonzero;"/><path d="M115.197,83.123l0.4,1.885l0.059,0l0.498,-1.885l2.246,-7.139l1.006,0l2.246,7.139l0.508,1.934l0.058,0l0.44,-1.934l1.924,-7.139l1.211,0l-3.076,10.567l-0.997,0l-2.343,-7.227l-0.459,-1.826l-0.059,0l-0.469,1.826l-2.304,7.227l-1.006,0l-3.067,-10.567l1.211,0l1.973,7.139Z" style="fill:#808080;fill-rule:nonzero;"/><path d="M131.877,76.785c-0.866,0 -1.592,0.329 -2.178,0.988c-0.586,0.659 -0.927,1.486 -1.025,2.479l0.019,0.049l6.192,0l0,-0.292c0,-0.916 -0.271,-1.682 -0.811,-2.299c-0.54,-0.616 -1.272,-0.925 -2.197,-0.925M132.023,86.756c-1.321,0 -2.419,-0.489 -3.295,-1.465c-0.876,-0.977 -1.314,-2.214 -1.314,-3.711l0,-0.537c0,-1.511 0.435,-2.764 1.304,-3.76c0.869,-0.996 1.922,-1.494 3.159,-1.494c1.296,0 2.314,0.41 3.057,1.23c0.742,0.821 1.113,1.914 1.113,3.282l0,0.996l-7.461,0l0,0.282c0,1.188 0.315,2.183 0.947,2.981c0.632,0.8 1.462,1.2 2.49,1.2c0.73,0 1.351,-0.102 1.866,-0.303c0.514,-0.202 0.954,-0.492 1.318,-0.869l0.498,0.801c-0.397,0.417 -0.9,0.75 -1.509,0.997c-0.608,0.247 -1.333,0.37 -2.173,0.37" style="fill:#808080;fill-rule:nonzero;"/><path d="M143.225,76.991l-0.869,-0.059c-0.735,-0.001 -1.34,0.206 -1.812,0.62c-0.471,0.413 -0.808,0.981 -1.01,1.704l0,7.296l-1.172,-0.001l0,-10.567l1.025,0l0.147,1.758l0,0.117c0.305,-0.651 0.715,-1.159 1.23,-1.523c0.515,-0.366 1.126,-0.547 1.836,-0.547c0.149,0 0.295,0.011 0.435,0.034c0.139,0.022 0.255,0.047 0.346,0.073l-0.156,1.094Z" style="fill:#808080;fill-rule:nonzero;"/><path d="M148.801,76.785c-0.866,0 -1.592,0.329 -2.178,0.988c-0.586,0.659 -0.927,1.486 -1.025,2.479l0.019,0.049l6.192,0l0,-0.292c0,-0.916 -0.271,-1.682 -0.811,-2.299c-0.54,-0.616 -1.272,-0.925 -2.197,-0.925M148.947,86.756c-1.321,0 -2.419,-0.489 -3.295,-1.465c-0.876,-0.977 -1.314,-2.214 -1.314,-3.711l0,-0.537c0,-1.511 0.435,-2.764 1.304,-3.76c0.869,-0.996 1.922,-1.494 3.159,-1.494c1.296,0 2.314,0.41 3.057,1.23c0.742,0.821 1.113,1.914 1.113,3.282l0,0.996l-7.461,0l0,0.282c0,1.188 0.315,2.183 0.947,2.981c0.632,0.8 1.462,1.2 2.49,1.2c0.73,0 1.351,-0.102 1.866,-0.303c0.514,-0.202 0.954,-0.492 1.318,-0.869l0.498,0.801c-0.397,0.417 -0.9,0.75 -1.509,0.997c-0.608,0.247 -1.333,0.37 -2.173,0.37" style="fill:#808080;fill-rule:nonzero;"/><path d="M155.998,81.562c0,1.282 0.256,2.302 0.767,3.061c0.51,0.757 1.281,1.137 2.309,1.137c0.755,0 1.385,-0.17 1.89,-0.51c0.505,-0.34 0.896,-0.811 1.177,-1.413l0,-4.982c-0.267,-0.614 -0.645,-1.113 -1.133,-1.496c-0.489,-0.382 -1.126,-0.573 -1.914,-0.573c-1.029,0 -1.802,0.422 -2.32,1.269c-0.517,0.848 -0.776,1.947 -0.776,3.301l0,0.206ZM154.826,81.356c0,-1.687 0.357,-3.036 1.069,-4.048c0.713,-1.013 1.707,-1.518 2.984,-1.518c0.735,0 1.374,0.156 1.914,0.468c0.54,0.313 0.989,0.755 1.348,1.328l0,-6.269l1.162,0l0,15.234l-1.035,0l-0.098,-1.533c-0.352,0.56 -0.804,0.989 -1.358,1.289c-0.553,0.299 -1.204,0.449 -1.953,0.449c-1.262,0 -2.251,-0.47 -2.964,-1.411c-0.712,-0.941 -1.069,-2.202 -1.069,-3.784l0,-0.205Z" style="fill:#808080;fill-rule:nonzero;"/><path d="M178.615,81.356c0,-1.354 -0.261,-2.453 -0.781,-3.301c-0.521,-0.846 -1.292,-1.269 -2.315,-1.269c-0.813,0 -1.469,0.202 -1.967,0.608c-0.499,0.405 -0.868,0.925 -1.109,1.559l0,4.797c0.261,0.614 0.65,1.103 1.167,1.465c0.518,0.364 1.16,0.545 1.929,0.545c1.022,0 1.79,-0.38 2.305,-1.137c0.514,-0.759 0.771,-1.779 0.771,-3.061l0,-0.206ZM179.797,81.561c0,1.582 -0.359,2.843 -1.075,3.784c-0.715,0.941 -1.702,1.411 -2.959,1.411c-0.774,0 -1.442,-0.155 -2.002,-0.463c-0.559,-0.31 -1.012,-0.754 -1.357,-1.333l-0.127,1.591l-1.006,0l0,-15.234l1.172,0l0,6.328c0.352,-0.593 0.801,-1.05 1.348,-1.372c0.547,-0.322 1.198,-0.483 1.953,-0.483c1.269,0 2.263,0.505 2.978,1.518c0.716,1.012 1.075,2.361 1.075,4.048l0,0.205Z" style="fill:#808080;fill-rule:nonzero;"/><path d="M185.305,83.69l0.371,1.26l0.059,0l3.193,-8.965l1.309,0l-4.59,12.256c-0.274,0.716 -0.628,1.324 -1.065,1.826c-0.436,0.501 -1.074,0.752 -1.914,0.752c-0.136,0 -0.302,-0.015 -0.498,-0.044c-0.195,-0.029 -0.339,-0.061 -0.429,-0.093l0.136,-0.976c0.078,0.012 0.203,0.027 0.376,0.044c0.173,0.015 0.298,0.024 0.376,0.024c0.508,0 0.915,-0.181 1.221,-0.542c0.306,-0.361 0.566,-0.825 0.781,-1.392l0.557,-1.425l-4.082,-10.43l1.299,0l2.9,7.705Z" style="fill:#808080;fill-rule:nonzero;"/><path d="M200.773,76.785c-0.866,0 -1.592,0.329 -2.178,0.988c-0.586,0.659 -0.927,1.486 -1.025,2.479l0.019,0.049l6.192,0l0,-0.292c0,-0.916 -0.271,-1.682 -0.811,-2.299c-0.54,-0.616 -1.272,-0.925 -2.197,-0.925M200.919,86.756c-1.321,0 -2.419,-0.489 -3.295,-1.465c-0.876,-0.977 -1.314,-2.214 -1.314,-3.711l0,-0.537c0,-1.511 0.435,-2.764 1.304,-3.76c0.869,-0.996 1.922,-1.494 3.159,-1.494c1.296,0 2.314,0.41 3.057,1.23c0.742,0.821 1.113,1.914 1.113,3.282l0,0.996l-7.461,0l0,0.282c0,1.188 0.315,2.183 0.947,2.981c0.632,0.8 1.462,1.2 2.49,1.2c0.73,0 1.351,-0.102 1.866,-0.303c0.514,-0.202 0.954,-0.492 1.318,-0.869l0.498,0.801c-0.397,0.417 -0.9,0.75 -1.509,0.997c-0.608,0.247 -1.333,0.37 -2.173,0.37" style="fill:#808080;fill-rule:nonzero;"/><path d="M208.742,79.647l3.73,0c1.172,0 2.053,-0.298 2.642,-0.894c0.589,-0.595 0.884,-1.346 0.884,-2.251c0,-0.912 -0.293,-1.668 -0.879,-2.27c-0.586,-0.603 -1.468,-0.903 -2.647,-0.903l-3.73,0l0,6.318ZM208.742,80.643l0,5.908l-1.162,0l0,-14.218l4.892,0c1.492,0 2.645,0.378 3.462,1.137c0.818,0.758 1.226,1.763 1.226,3.013c0,1.263 -0.408,2.271 -1.226,3.027c-0.817,0.755 -1.97,1.133 -3.462,1.133l-3.73,0Z" style="fill:#808080;fill-rule:nonzero;"/><path d="M226.555,84.823c-0.339,0.617 -0.794,1.094 -1.367,1.43c-0.573,0.335 -1.25,0.503 -2.031,0.503c-1.114,0 -1.986,-0.378 -2.618,-1.133c-0.631,-0.756 -0.947,-1.928 -0.947,-3.516l0,-6.123l1.172,0.001l0,6.153c0,1.292 0.22,2.219 0.659,2.78c0.44,0.561 1.063,0.842 1.87,0.842c0.886,0 1.592,-0.2 2.119,-0.597c0.528,-0.399 0.896,-0.946 1.104,-1.645l0,-7.534l1.172,0l0,10.567l-1.035,0l-0.098,-1.729Z" style="fill:#808080;fill-rule:nonzero;"/><path d="M238.098,81.356c0,-1.354 -0.261,-2.453 -0.781,-3.301c-0.521,-0.846 -1.292,-1.269 -2.315,-1.269c-0.813,0 -1.469,0.202 -1.967,0.608c-0.499,0.405 -0.868,0.925 -1.109,1.559l0,4.797c0.261,0.614 0.65,1.103 1.167,1.465c0.518,0.364 1.16,0.545 1.929,0.545c1.022,0 1.79,-0.38 2.305,-1.137c0.514,-0.759 0.771,-1.779 0.771,-3.061l0,-0.206ZM239.28,81.561c0,1.582 -0.359,2.843 -1.075,3.784c-0.715,0.941 -1.702,1.411 -2.959,1.411c-0.774,0 -1.442,-0.155 -2.002,-0.463c-0.559,-0.31 -1.012,-0.754 -1.357,-1.333l-0.127,1.591l-1.006,0l0,-15.234l1.172,0l0,6.328c0.352,-0.593 0.801,-1.05 1.348,-1.372c0.547,-0.322 1.198,-0.483 1.953,-0.483c1.269,0 2.263,0.505 2.978,1.518c0.716,1.012 1.075,2.361 1.075,4.048l0,0.205Z" style="fill:#808080;fill-rule:nonzero;"/><path d="M248.41,72.332l1.172,0l0,10.186c0,1.294 -0.386,2.325 -1.157,3.09c-0.772,0.765 -1.77,1.148 -2.994,1.148c-1.334,0 -2.389,-0.346 -3.164,-1.035c-0.774,-0.691 -1.145,-1.7 -1.113,-3.028l0.02,-0.058l1.093,0c0,1.025 0.274,1.802 0.821,2.331c0.547,0.529 1.328,0.794 2.343,0.794c0.867,0 1.58,-0.295 2.139,-0.884c0.56,-0.588 0.84,-1.377 0.84,-2.366l0,-10.178Z" style="fill:#808080;fill-rule:nonzero;"/><path d="M261.359,83.059c0,-0.773 -0.29,-1.405 -0.869,-1.896c-0.579,-0.491 -1.589,-0.924 -3.027,-1.301c-1.556,-0.391 -2.735,-0.899 -3.536,-1.524c-0.8,-0.625 -1.201,-1.468 -1.201,-2.529c0,-1.088 0.447,-1.973 1.343,-2.656c0.895,-0.684 2.046,-1.026 3.452,-1.026c1.465,0 2.647,0.407 3.545,1.221c0.898,0.814 1.335,1.807 1.309,2.979l-0.03,0.058l-1.074,0c0,-0.951 -0.337,-1.732 -1.011,-2.344c-0.673,-0.612 -1.587,-0.918 -2.739,-0.918c-1.14,0 -2.029,0.254 -2.671,0.762c-0.641,0.508 -0.962,1.139 -0.962,1.895c0,0.716 0.296,1.313 0.889,1.792c0.593,0.478 1.614,0.899 3.066,1.264c1.531,0.391 2.694,0.918 3.492,1.582c0.797,0.664 1.196,1.539 1.196,2.627c0,1.133 -0.464,2.035 -1.392,2.705c-0.927,0.67 -2.111,1.006 -3.55,1.006c-1.418,0 -2.658,-0.356 -3.715,-1.069c-1.058,-0.713 -1.571,-1.753 -1.538,-3.12l0.019,-0.059l1.074,0c0,1.104 0.413,1.921 1.241,2.453c0.827,0.533 1.799,0.799 2.919,0.799c1.126,0 2.037,-0.247 2.73,-0.741c0.693,-0.494 1.04,-1.147 1.04,-1.96" style="fill:#808080;fill-rule:nonzero;"/><path d="M1.088,38.055l60.43,-25.536l0,-7.732l-60.43,33.268Z" style="fill:url(#_Linear1);fill-rule:nonzero;"/><path d="M50.261,0l-49.173,35.491l49.173,-27.759l0,-7.732Z" style="fill:url(#_Linear2);fill-rule:nonzero;"/><path d="M1,40.928l0,51.525c0,5.5 4.588,10.098 10.088,10.098l53.065,0c5.5,0 9.847,-4.598 9.847,-10.098l0,-81.826l-73,30.301Z" style="fill:url(#_Linear3);fill-rule:nonzero;"/><path d="M61.372,68.887c-1.193,1.076 -3.007,2.097 -5.245,2.949c-0.906,0.346 -1.869,0.662 -2.881,0.948c-0.312,-1.001 -0.668,-2.026 -1.065,-3.07c-0.485,-1.273 -1.024,-2.555 -1.616,-3.837c0.587,-1.274 1.123,-2.547 1.605,-3.812c0.4,-1.051 0.757,-2.083 1.071,-3.092c1.014,0.287 1.979,0.603 2.886,0.949c2.238,0.854 4.052,1.873 5.245,2.949c1.106,0.998 1.667,2.01 1.667,3.008c0,0.999 -0.561,2.011 -1.667,3.008M52.208,78.612c0.379,2.363 0.403,4.444 0.068,6.015c-0.31,1.457 -0.906,2.448 -1.771,2.948c-0.447,0.258 -0.98,0.389 -1.582,0.389c-1.075,0 -2.352,-0.397 -3.796,-1.181c-1.502,-0.815 -3.11,-2.012 -4.78,-3.557c-0.24,-0.222 -0.478,-0.449 -0.718,-0.683c1.001,-1.083 1.995,-2.258 2.972,-3.514c0.565,-0.728 1.121,-1.478 1.666,-2.246c1.41,-0.13 2.793,-0.304 4.142,-0.521c1.099,-0.178 2.161,-0.382 3.181,-0.611c0.258,1.016 0.465,2.006 0.618,2.961M30.85,86.75c-1.444,0.783 -2.721,1.181 -3.795,1.181c-0.603,0 -1.135,-0.131 -1.582,-0.39c-0.865,-0.499 -1.461,-1.49 -1.772,-2.948c-0.335,-1.571 -0.311,-3.651 0.068,-6.016c0.153,-0.948 0.358,-1.93 0.613,-2.94c1.04,0.234 2.123,0.443 3.244,0.625c1.321,0.213 2.675,0.384 4.055,0.512c0.554,0.785 1.12,1.549 1.695,2.289c0.967,1.243 1.949,2.405 2.939,3.479c-0.228,0.222 -0.456,0.439 -0.684,0.65c-1.671,1.545 -3.279,2.742 -4.781,3.558M19.908,71.836c-2.237,-0.852 -4.051,-1.873 -5.244,-2.949c-1.106,-0.997 -1.667,-2.009 -1.667,-3.008c0,-0.998 0.561,-2.01 1.667,-3.008c1.193,-1.076 3.007,-2.095 5.244,-2.949c0.889,-0.338 1.833,-0.648 2.823,-0.931c0.315,1.013 0.674,2.05 1.077,3.107c0.477,1.255 1.007,2.516 1.588,3.779c-0.585,1.272 -1.119,2.541 -1.6,3.803c-0.399,1.05 -0.756,2.079 -1.069,3.086c-0.989,-0.281 -1.932,-0.592 -2.819,-0.93M23.78,53.201c-0.379,-2.364 -0.403,-4.445 -0.068,-6.016c0.311,-1.457 0.907,-2.448 1.771,-2.948c0.448,-0.258 0.98,-0.389 1.582,-0.389c1.076,0 2.352,0.396 3.795,1.181c1.503,0.815 3.112,2.012 4.782,3.557c0.224,0.207 0.448,0.421 0.673,0.639c-0.994,1.076 -1.98,2.244 -2.95,3.491c-0.571,0.734 -1.132,1.491 -1.681,2.269c-1.381,0.129 -2.736,0.299 -4.058,0.512c-1.119,0.181 -2.2,0.389 -3.238,0.624c-0.252,-1.002 -0.456,-1.978 -0.608,-2.92M47.679,60.315c-0.544,-0.942 -1.105,-1.864 -1.682,-2.764c1.721,0.213 3.375,0.495 4.938,0.843c-0.479,1.527 -1.06,3.1 -1.735,4.698c-0.481,-0.928 -0.989,-1.854 -1.521,-2.777M37.973,50.935c1.078,1.174 2.147,2.459 3.187,3.832c-1.037,-0.047 -2.085,-0.07 -3.142,-0.07c-1.087,0 -2.165,0.025 -3.229,0.074c1.04,-1.374 2.107,-2.661 3.184,-3.836M26.761,63.088c-0.671,-1.591 -1.249,-3.158 -1.725,-4.68c1.556,-0.348 3.202,-0.632 4.916,-0.846c-0.567,0.886 -1.119,1.794 -1.653,2.719c-0.539,0.933 -1.052,1.87 -1.538,2.807M29.95,74.198c-1.715,-0.215 -3.362,-0.499 -4.919,-0.848c0.478,-1.524 1.056,-3.092 1.729,-4.684c0.49,0.947 1.007,1.891 1.549,2.831c0.531,0.919 1.079,1.82 1.641,2.701M37.973,80.83c-1.078,-1.175 -2.147,-2.465 -3.188,-3.841c1.066,0.048 2.145,0.073 3.233,0.073c1.058,0 2.108,-0.023 3.146,-0.07c-1.042,1.375 -2.112,2.664 -3.191,3.838M49.202,68.662c0.675,1.599 1.258,3.173 1.738,4.703c-1.564,0.347 -3.219,0.629 -4.941,0.843c0.572,-0.894 1.129,-1.809 1.669,-2.744c0.537,-0.931 1.049,-1.865 1.534,-2.802M45.609,70.276c-0.842,1.459 -1.734,2.876 -2.659,4.231c-1.607,0.118 -3.257,0.179 -4.932,0.179c-1.706,0 -3.384,-0.063 -5.018,-0.185c-0.916,-1.343 -1.798,-2.747 -2.632,-4.192c-0.851,-1.474 -1.636,-2.957 -2.346,-4.431c0.707,-1.467 1.488,-2.942 2.334,-4.409c0.839,-1.452 1.726,-2.861 2.646,-4.211c1.633,-0.122 3.311,-0.184 5.016,-0.184c1.674,0 3.324,0.06 4.93,0.178c0.93,1.361 1.826,2.784 2.673,4.251c0.84,1.455 1.615,2.919 2.318,4.375c-0.706,1.463 -1.484,2.935 -2.33,4.398M45.117,44.995c1.443,-0.783 2.72,-1.181 3.795,-1.181c0.602,0 1.134,0.131 1.582,0.389c0.864,0.499 1.46,1.491 1.771,2.949c0.335,1.571 0.312,3.651 -0.068,6.015c-0.153,0.949 -0.358,1.931 -0.613,2.94c-1.019,-0.229 -2.078,-0.433 -3.175,-0.61c-1.35,-0.217 -2.734,-0.391 -4.145,-0.52c-0.54,-0.764 -1.091,-1.506 -1.652,-2.228c-0.98,-1.26 -1.977,-2.439 -2.982,-3.526c0.235,-0.229 0.471,-0.452 0.705,-0.67c1.67,-1.545 3.279,-2.742 4.782,-3.558M64.742,63.303c-0.41,-0.763 -1.008,-1.501 -1.779,-2.195c-1.429,-1.289 -3.445,-2.436 -5.989,-3.407c-0.97,-0.369 -2,-0.707 -3.087,-1.013c0.274,-1.08 0.493,-2.13 0.656,-3.144c0.432,-2.688 0.447,-5.006 0.046,-6.888c-0.216,-1.015 -0.557,-1.904 -1.013,-2.639c-0.498,-0.804 -1.135,-1.434 -1.894,-1.872c-0.814,-0.469 -1.746,-0.707 -2.77,-0.707c-1.476,0 -3.134,0.494 -4.93,1.47c-1.675,0.909 -3.445,2.221 -5.26,3.901c-0.25,0.231 -0.5,0.469 -0.751,0.712c-0.238,-0.232 -0.477,-0.458 -0.716,-0.679c-1.815,-1.679 -3.585,-2.991 -5.26,-3.901c-1.795,-0.975 -3.454,-1.47 -4.93,-1.47c-1.024,0 -1.956,0.238 -2.77,0.708c-0.758,0.438 -1.396,1.067 -1.894,1.871c-0.455,0.736 -0.797,1.624 -1.013,2.64c-0.401,1.882 -0.386,4.199 0.046,6.888c0.162,1.008 0.38,2.052 0.652,3.127c-1.064,0.302 -2.073,0.635 -3.025,0.996c-2.544,0.971 -4.559,2.118 -5.989,3.407c-0.771,0.694 -1.369,1.432 -1.778,2.195c-0.447,0.833 -0.674,1.7 -0.674,2.576c0,0.877 0.227,1.743 0.674,2.576c0.409,0.763 1.007,1.502 1.778,2.198c1.43,1.289 3.445,2.433 5.989,3.404c0.95,0.362 1.957,0.693 3.019,0.995c-0.274,1.083 -0.494,2.134 -0.657,3.148c-0.432,2.689 -0.447,5.007 -0.046,6.889c0.217,1.015 0.557,1.903 1.013,2.639c0.498,0.804 1.135,1.432 1.894,1.872c0.814,0.469 1.746,0.707 2.771,0.707c1.475,0 3.133,-0.494 4.928,-1.47c1.676,-0.909 3.447,-2.221 5.261,-3.901c0.243,-0.224 0.485,-0.454 0.727,-0.69c0.254,0.247 0.508,0.49 0.762,0.724c1.815,1.679 3.585,2.991 5.261,3.901c1.795,0.975 3.454,1.47 4.929,1.47c1.025,0 1.957,-0.238 2.77,-0.708c0.759,-0.437 1.396,-1.067 1.894,-1.871c0.456,-0.736 0.797,-1.624 1.014,-2.639c0.401,-1.882 0.385,-4.2 -0.047,-6.889c-0.164,-1.02 -0.385,-2.076 -0.661,-3.165c1.084,-0.305 2.113,-0.643 3.081,-1.012c2.544,-0.971 4.56,-2.115 5.989,-3.404c0.771,-0.696 1.369,-1.435 1.779,-2.198c0.446,-0.833 0.673,-1.699 0.673,-2.576c0,-0.876 -0.227,-1.743 -0.673,-2.576" style="fill:#67daf9;fill-rule:nonzero;"/><path d="M37.825,68.873c-1.521,0 -2.753,-1.233 -2.753,-2.754c0,-1.519 1.232,-2.752 2.753,-2.752c1.52,0 2.753,1.233 2.753,2.752c0,1.521 -1.233,2.754 -2.753,2.754M44.977,66.094c0,-0.007 -0.001,-0.013 -0.001,-0.018c0,-0.003 -0.001,-0.007 -0.001,-0.01c0,-0.004 -0.001,-0.007 -0.001,-0.012c-0.001,-0.005 -0.002,-0.01 -0.002,-0.015c-0.001,0 -0.001,-0.001 -0.001,-0.002c-0.017,-0.11 -0.069,-0.215 -0.149,-0.293c-0.456,-0.542 -0.999,-1.023 -1.552,-1.463c-1.188,-0.947 -2.549,-1.74 -4.049,-2.058c-0.868,-0.185 -1.741,-0.193 -2.613,-0.037c-0.793,0.142 -1.558,0.437 -2.273,0.802c-1.12,0.572 -2.143,1.362 -3.034,2.246c-0.165,0.164 -0.33,0.33 -0.479,0.509c-0.2,0.237 -0.2,0.517 0,0.753c0.456,0.541 0.999,1.023 1.551,1.463c1.189,0.947 2.549,1.739 4.05,2.058c0.868,0.184 1.74,0.192 2.612,0.037c0.794,-0.143 1.558,-0.438 2.274,-0.803c1.12,-0.572 2.143,-1.361 3.035,-2.246c0.164,-0.164 0.328,-0.33 0.478,-0.508c0.08,-0.081 0.132,-0.185 0.15,-0.294l0,-0.002c0.001,-0.006 0.001,-0.011 0.002,-0.016c0,-0.003 0.001,-0.008 0.001,-0.011c0.001,-0.004 0.001,-0.007 0.001,-0.01l0.002,-0.018c0,-0.008 0,-0.017 0,-0.027c0,-0.008 0,-0.017 -0.001,-0.025" style="fill:#fff;fill-rule:nonzero;"/><path d="M37.825,65.209c0.503,0 0.911,0.408 0.911,0.91c0,0.504 -0.408,0.912 -0.911,0.912c-0.503,0 -0.911,-0.408 -0.911,-0.912c0,-0.502 0.408,-0.91 0.911,-0.91" style="fill:#fff;fill-rule:nonzero;"/></g></g><defs><linearGradient id="_Linear1" x1="0" y1="0" x2="1" y2="0" gradientUnits="userSpaceOnUse" gradientTransform="matrix(60.4297,0,0,60.4297,1.08789,21.4201)"><stop offset="0%" style="stop-color:#262728;stop-opacity:1"/><stop offset="100%" style="stop-color:#464b4f;stop-opacity:1"/></linearGradient><linearGradient id="_Linear2" x1="0" y1="0" x2="1" y2="0" gradientUnits="userSpaceOnUse" gradientTransform="matrix(49.1724,0,0,49.1724,1.08789,17.7463)"><stop offset="0%" style="stop-color:#262728;stop-opacity:1"/><stop offset="100%" style="stop-color:#464b4f;stop-opacity:1"/></linearGradient><linearGradient id="_Linear3" x1="0" y1="0" x2="1" y2="0" gradientUnits="userSpaceOnUse" gradientTransform="matrix(73,0,0,73,1,56.5891)"><stop offset="0%" style="stop-color:#262728;stop-opacity:1"/><stop offset="100%" style="stop-color:#464b4f;stop-opacity:1"/></linearGradient></defs></svg>